<svg xmlns="http://www.w3.org/2000/svg" xmlns:xlink="http://www.w3.org/1999/xlink" width="60" zoomAndPan="magnify" viewBox="0 0 45 44.999999" height="60" preserveAspectRatio="xMidYMid meet" version="1.0"><defs><clipPath id="id1"><path d="M 14.5625 15.632812 L 30.300781 15.632812 L 30.300781 31.5 L 14.5625 31.5 Z M 14.5625 15.632812 " clip-rule="nonzero"/></clipPath><clipPath id="id2"><path d="M 20.511719 28.042969 L 24.230469 28.042969 L 24.230469 31.5 L 20.511719 31.5 Z M 20.511719 28.042969 " clip-rule="nonzero"/></clipPath><clipPath id="id3"><path d="M 16 13.5 L 29 13.5 L 29 25 L 16 25 Z M 16 13.5 " clip-rule="nonzero"/></clipPath><clipPath id="id4"><path d="M 24 13.5 L 26 13.5 L 26 17 L 24 17 Z M 24 13.5 " clip-rule="nonzero"/></clipPath><clipPath id="id5"><path d="M 16 13.5 L 29 13.5 L 29 25 L 16 25 Z M 16 13.5 " clip-rule="nonzero"/></clipPath></defs><g clip-path="url(#id1)"><path fill="#a5dce1" d="M 22.707031 15.640625 C 18.363281 15.488281 14.71875 18.914062 14.566406 23.292969 C 14.417969 27.671875 17.816406 31.34375 22.160156 31.496094 C 26.5 31.648438 30.144531 28.222656 30.296875 23.84375 C 30.449219 19.464844 27.050781 15.792969 22.707031 15.640625 " fill-opacity="1" fill-rule="nonzero"/></g><g clip-path="url(#id2)"><path fill="#f58c6c" d="M 24.195312 28.203125 L 20.640625 28.078125 L 20.539062 30.972656 L 20.527344 31.265625 C 21.050781 31.398438 21.597656 31.476562 22.160156 31.496094 C 22.820312 31.519531 23.46875 31.457031 24.089844 31.324219 L 24.089844 31.292969 L 24.195312 28.203125 " fill-opacity="1" fill-rule="nonzero"/></g><path fill="#13131c" d="M 24.242188 29.019531 L 24.242188 29.109375 C 24.246094 29.09375 24.246094 29.082031 24.246094 29.066406 C 24.25 29.050781 24.246094 29.035156 24.242188 29.019531 " fill-opacity="1" fill-rule="nonzero"/><path fill="#f9beaa" d="M 23.175781 26.472656 C 23.097656 26.382812 22.90625 26.207031 22.613281 26.203125 C 22.367188 26.203125 22.191406 26.328125 22.109375 26.402344 C 22.085938 26.421875 22.085938 26.453125 22.105469 26.476562 C 22.125 26.492188 22.15625 26.492188 22.175781 26.476562 C 22.246094 26.414062 22.398438 26.304688 22.613281 26.304688 C 22.867188 26.308594 23.035156 26.464844 23.101562 26.539062 C 23.121094 26.558594 23.148438 26.5625 23.167969 26.546875 C 23.191406 26.527344 23.195312 26.492188 23.175781 26.472656 " fill-opacity="1" fill-rule="nonzero"/><g clip-path="url(#id3)"><path fill="#8e3d34" d="M 27.34375 16.0625 C 27.199219 16.058594 27.042969 16.132812 26.964844 16.046875 C 26.886719 15.964844 26.972656 15.816406 26.976562 15.664062 C 27.0625 13.734375 24.820312 13.640625 24.714844 13.699219 C 24.703125 13.707031 24.695312 13.714844 24.691406 13.722656 C 24.652344 13.820312 25.1875 13.988281 25.273438 14.433594 C 25.308594 14.628906 25.257812 14.859375 25.15625 14.886719 C 25.136719 14.890625 25.121094 14.890625 25.101562 14.878906 C 24.996094 14.835938 24.878906 14.613281 24.742188 14.4375 C 24.238281 13.792969 23.347656 13.675781 22.820312 13.605469 C 22.027344 13.5 21.410156 13.667969 21.121094 13.75 C 20.820312 13.835938 19.695312 14.167969 18.792969 15.148438 C 18.476562 15.492188 18.171875 15.929688 17.617188 16.230469 C 17.386719 16.355469 17.125 16.492188 16.800781 16.457031 C 16.617188 16.433594 16.4375 16.363281 16.359375 16.371094 C 16.339844 16.371094 16.328125 16.375 16.320312 16.386719 C 16.300781 16.417969 16.335938 16.476562 16.414062 16.578125 C 16.640625 16.867188 16.78125 17.042969 17.027344 17.152344 C 17.355469 17.296875 17.503906 17.164062 17.582031 17.273438 C 17.765625 17.535156 16.84375 18.171875 16.96875 18.914062 C 17.019531 19.230469 17.203125 19.199219 17.347656 19.664062 C 17.472656 20.082031 17.347656 20.179688 17.40625 20.816406 C 17.46875 21.460938 17.726562 23.976562 17.863281 23.898438 C 18.011719 23.816406 18.136719 23.476562 18.101562 22.652344 C 18.089844 22.320312 18.097656 22.085938 18.109375 21.785156 C 18.117188 21.460938 18.148438 20.742188 18.351562 19.878906 C 18.507812 19.214844 18.585938 18.882812 18.828125 18.492188 C 18.957031 18.289062 19.304688 17.742188 20.007812 17.386719 C 20.183594 17.296875 20.910156 16.925781 21.738281 17.113281 C 22.238281 17.226562 22.242188 17.425781 22.671875 17.476562 C 22.679688 17.480469 22.683594 17.480469 22.6875 17.480469 C 23.347656 17.554688 23.542969 17.199219 24.140625 17.121094 C 27.007812 16.761719 27.175781 20.210938 27.179688 21.152344 C 27.183594 21.511719 27.125 22.164062 27.027344 22.964844 C 26.9375 23.660156 26.710938 24.621094 26.960938 24.527344 C 27.171875 24.449219 27.132812 24.496094 27.171875 24.449219 C 27.421875 24.167969 27.941406 20.914062 27.996094 20.476562 C 28.222656 18.589844 27.789062 17.542969 27.726562 17.402344 C 27.601562 17.117188 27.460938 16.914062 27.519531 16.859375 C 27.566406 16.816406 27.707031 16.894531 27.792969 16.945312 C 28.117188 17.128906 28.234375 17.359375 28.261719 17.34375 C 28.324219 17.308594 27.90625 16.078125 27.34375 16.0625 " fill-opacity="1" fill-rule="nonzero"/></g><path fill="#ffb288" d="M 18.289062 23.089844 C 18.109375 22.902344 17.710938 22.5 17.296875 22.597656 C 16.964844 22.671875 16.792969 23.023438 16.664062 23.289062 C 16.578125 23.464844 16.328125 23.996094 16.515625 24.636719 C 16.566406 24.808594 16.710938 25.199219 17.09375 25.5 C 17.234375 25.609375 17.542969 25.851562 17.992188 25.835938 C 18.035156 25.835938 18.59375 25.808594 18.894531 25.410156 C 19.375 24.773438 18.847656 23.65625 18.289062 23.089844 " fill-opacity="1" fill-rule="nonzero"/><path fill="#f58c6c" d="M 18.308594 23.984375 C 18.125 23.664062 17.734375 22.984375 17.429688 23.058594 C 17.132812 23.136719 17.097656 23.890625 17.097656 23.96875 C 17.089844 24.140625 17.082031 24.453125 17.269531 24.765625 C 17.351562 24.894531 17.511719 25.164062 17.835938 25.242188 C 18.101562 25.308594 18.464844 25.246094 18.605469 25.015625 C 18.757812 24.761719 18.558594 24.417969 18.308594 23.984375 " fill-opacity="1" fill-rule="nonzero"/><path fill="#ffb288" d="M 28.304688 23.699219 C 28.191406 23.421875 28.046875 23.0625 27.722656 22.960938 C 27.3125 22.835938 26.890625 23.210938 26.695312 23.386719 C 26.101562 23.914062 25.5 24.988281 25.933594 25.65625 C 26.207031 26.078125 26.761719 26.140625 26.800781 26.144531 C 27.25 26.191406 27.574219 25.972656 27.722656 25.871094 C 28.125 25.601562 28.296875 25.21875 28.359375 25.050781 C 28.589844 24.425781 28.378906 23.878906 28.304688 23.699219 " fill-opacity="1" fill-rule="nonzero"/><path fill="#f58c6c" d="M 27.828125 24.34375 C 27.828125 24.265625 27.847656 23.511719 27.554688 23.417969 C 27.257812 23.316406 26.820312 23.96875 26.613281 24.277344 C 26.335938 24.691406 26.117188 25.019531 26.25 25.285156 C 26.371094 25.523438 26.730469 25.613281 27 25.566406 C 27.328125 25.507812 27.507812 25.253906 27.597656 25.128906 C 27.808594 24.828125 27.820312 24.519531 27.828125 24.34375 " fill-opacity="1" fill-rule="nonzero"/><path fill="#f58c6c" d="M 27.007812 23.554688 C 27.058594 22.402344 27.347656 22.332031 27.386719 21.421875 C 27.464844 19.71875 27.363281 19.582031 27.175781 18.710938 C 27.101562 18.355469 26.945312 17.640625 26.371094 17.046875 C 25.660156 16.3125 24.730469 16.203125 23.722656 16.085938 C 23.128906 16.019531 22.355469 15.929688 21.390625 16.210938 C 20.996094 16.324219 19.96875 16.636719 19.113281 17.609375 C 18.90625 17.84375 18.394531 18.472656 18.140625 19.414062 C 18.058594 19.714844 18.03125 20.195312 17.976562 21.144531 C 17.921875 22.214844 17.890625 22.753906 17.90625 23.285156 C 17.929688 24.371094 17.945312 24.914062 18.128906 25.539062 C 18.261719 25.976562 18.648438 27.207031 19.816406 28.046875 C 20.414062 28.480469 20.988281 28.636719 21.261719 28.710938 C 21.589844 28.796875 22.386719 29.003906 23.382812 28.785156 C 24.554688 28.53125 25.273438 27.851562 25.550781 27.585938 C 26.398438 26.769531 26.707031 25.875 26.785156 25.636719 C 26.941406 25.15625 26.960938 24.621094 27.007812 23.554688 " fill-opacity="1" fill-rule="nonzero"/><path fill="#ffb288" d="M 27.019531 23.273438 C 27.066406 22.167969 27.355469 22.101562 27.394531 21.226562 C 27.46875 19.585938 27.367188 19.453125 27.179688 18.613281 C 27.101562 18.273438 26.949219 17.585938 26.375 17.015625 C 25.660156 16.304688 24.730469 16.199219 23.722656 16.085938 C 23.128906 16.019531 22.355469 15.929688 21.390625 16.199219 C 20.996094 16.308594 19.96875 16.609375 19.117188 17.542969 C 18.910156 17.769531 18.398438 18.375 18.144531 19.277344 C 18.0625 19.570312 18.035156 20.03125 17.984375 20.945312 C 17.929688 21.976562 17.902344 22.492188 17.914062 23.003906 C 17.941406 24.050781 17.957031 24.574219 18.144531 25.171875 C 18.273438 25.597656 18.664062 26.78125 19.832031 27.589844 C 20.433594 28.007812 21.003906 28.160156 21.277344 28.230469 C 21.605469 28.316406 22.40625 28.511719 23.402344 28.304688 C 24.570312 28.0625 25.289062 27.410156 25.566406 27.152344 C 26.410156 26.371094 26.722656 25.507812 26.796875 25.28125 C 26.949219 24.816406 26.972656 24.300781 27.019531 23.273438 " fill-opacity="1" fill-rule="nonzero"/><path fill="#f48f6d" d="M 23.195312 23.25 C 22.917969 22.890625 22.292969 22.957031 21.933594 23.152344 C 21.835938 23.207031 21.636719 23.316406 21.617188 23.5 C 21.601562 23.660156 21.96875 24.304688 22.445312 24.324219 C 22.804688 24.335938 23.191406 24.097656 23.304688 23.761719 C 23.390625 23.511719 23.203125 23.261719 23.195312 23.25 " fill-opacity="1" fill-rule="nonzero"/><path fill="#591611" d="M 21.75 19.710938 C 21.664062 19.617188 21.558594 19.582031 21.359375 19.539062 C 20.695312 19.402344 20.246094 19.3125 19.792969 19.574219 C 19.519531 19.734375 19.371094 19.953125 19.246094 20.132812 C 19 20.492188 18.871094 20.90625 18.933594 20.941406 C 18.996094 20.980469 19.167969 20.550781 19.636719 20.324219 C 20.003906 20.144531 20.363281 20.183594 20.5 20.199219 C 21.226562 20.28125 21.496094 20.777344 21.738281 20.640625 C 21.957031 20.515625 21.992188 19.964844 21.75 19.710938 " fill-opacity="1" fill-rule="nonzero"/><g clip-path="url(#id4)"><path fill="#6d3131" d="M 25.824219 14.605469 C 25.785156 14.316406 25.578125 14.128906 25.464844 14.03125 C 25.214844 13.808594 24.929688 13.730469 24.714844 13.699219 C 24.703125 13.707031 24.695312 13.714844 24.691406 13.722656 C 24.652344 13.820312 25.1875 13.988281 25.273438 14.433594 C 25.308594 14.628906 25.257812 14.859375 25.15625 14.886719 C 25.136719 14.890625 25.121094 14.890625 25.101562 14.878906 C 25.113281 14.933594 25.125 14.988281 25.125 15.039062 C 25.148438 15.5 24.75 15.964844 24.839844 16.023438 C 24.914062 16.078125 25.226562 15.75 25.414062 15.507812 C 25.667969 15.179688 25.867188 14.925781 25.824219 14.605469 " fill-opacity="1" fill-rule="nonzero"/></g><path fill="#6d3131" d="M 18.101562 22.652344 C 18.089844 22.320312 18.097656 22.085938 18.109375 21.785156 C 18.117188 21.460938 18.148438 20.742188 18.351562 19.878906 C 18.507812 19.214844 18.585938 18.882812 18.828125 18.492188 C 18.957031 18.289062 19.304688 17.742188 20.007812 17.386719 C 20.183594 17.296875 20.910156 16.925781 21.738281 17.113281 C 22.238281 17.226562 22.242188 17.425781 22.671875 17.476562 C 22.65625 17.292969 22.601562 17.085938 22.480469 16.886719 C 22.066406 16.21875 21.167969 16.164062 20.683594 16.132812 C 19.8125 16.082031 19.128906 16.371094 18.898438 16.480469 C 18.226562 16.792969 18.160156 17.074219 17.761719 17.128906 C 17.433594 17.171875 16.972656 17.042969 16.359375 16.371094 C 16.339844 16.371094 16.328125 16.375 16.320312 16.386719 C 16.300781 16.417969 16.335938 16.476562 16.414062 16.578125 C 16.640625 16.867188 16.78125 17.042969 17.027344 17.152344 C 17.355469 17.296875 17.503906 17.164062 17.582031 17.273438 C 17.765625 17.535156 16.84375 18.171875 16.96875 18.914062 C 17.019531 19.230469 17.203125 19.199219 17.347656 19.664062 C 17.472656 20.082031 17.347656 20.179688 17.40625 20.816406 C 17.46875 21.460938 17.726562 23.976562 17.863281 23.898438 C 18.011719 23.816406 18.136719 23.476562 18.101562 22.652344 " fill-opacity="1" fill-rule="nonzero"/><g clip-path="url(#id5)"><path fill="#8e3d34" d="M 27.996094 20.476562 C 28.222656 18.589844 27.789062 17.542969 27.726562 17.402344 C 27.601562 17.117188 27.460938 16.914062 27.519531 16.859375 C 27.566406 16.816406 27.707031 16.894531 27.792969 16.945312 C 28.117188 17.128906 28.234375 17.359375 28.261719 17.34375 C 28.324219 17.308594 27.90625 16.078125 27.34375 16.0625 C 27.199219 16.058594 27.042969 16.132812 26.964844 16.046875 C 26.886719 15.964844 26.972656 15.816406 26.976562 15.664062 C 27.0625 13.734375 24.820312 13.640625 24.714844 13.699219 C 24.929688 13.730469 25.214844 13.808594 25.464844 14.03125 C 25.578125 14.128906 25.785156 14.316406 25.824219 14.605469 C 25.867188 14.925781 25.667969 15.179688 25.414062 15.507812 C 25.226562 15.75 24.914062 16.078125 24.839844 16.023438 C 24.75 15.964844 25.148438 15.5 25.125 15.039062 C 25.125 14.988281 25.113281 14.933594 25.101562 14.878906 C 24.996094 14.835938 24.878906 14.613281 24.742188 14.4375 C 24.238281 13.792969 23.347656 13.675781 22.820312 13.605469 C 22.027344 13.5 21.410156 13.667969 21.121094 13.75 C 20.820312 13.835938 19.695312 14.167969 18.792969 15.148438 C 18.476562 15.492188 18.171875 15.929688 17.617188 16.230469 C 17.386719 16.355469 17.125 16.492188 16.800781 16.457031 C 16.617188 16.433594 16.4375 16.363281 16.359375 16.371094 C 16.972656 17.042969 17.433594 17.171875 17.761719 17.128906 C 18.160156 17.074219 18.226562 16.792969 18.898438 16.480469 C 19.128906 16.371094 19.8125 16.082031 20.683594 16.132812 C 21.167969 16.164062 22.066406 16.21875 22.480469 16.886719 C 22.601562 17.085938 22.65625 17.292969 22.671875 17.476562 C 22.679688 17.480469 22.683594 17.480469 22.6875 17.480469 C 23.347656 17.554688 23.542969 17.199219 24.140625 17.121094 C 27.007812 16.761719 27.175781 20.210938 27.179688 21.152344 C 27.183594 21.511719 27.125 22.164062 27.027344 22.964844 C 26.9375 23.660156 26.710938 24.621094 26.960938 24.527344 C 27.171875 24.449219 27.132812 24.496094 27.171875 24.449219 C 27.421875 24.167969 27.941406 20.914062 27.996094 20.476562 " fill-opacity="1" fill-rule="nonzero"/></g><path fill="#8e3d34" d="M 21.753906 19.53125 C 21.667969 19.441406 21.566406 19.402344 21.363281 19.363281 C 20.699219 19.226562 20.253906 19.132812 19.800781 19.398438 C 19.527344 19.554688 19.378906 19.773438 19.253906 19.953125 C 19.003906 20.316406 18.878906 20.730469 18.9375 20.765625 C 19.003906 20.800781 19.175781 20.371094 19.644531 20.144531 C 20.007812 19.96875 20.371094 20.003906 20.503906 20.019531 C 21.234375 20.101562 21.5 20.601562 21.746094 20.464844 C 21.964844 20.339844 22 19.789062 21.753906 19.53125 " fill-opacity="1" fill-rule="nonzero"/><path fill="#591611" d="M 26.128906 20.375 C 26.015625 20.183594 25.882812 19.957031 25.621094 19.777344 C 25.1875 19.484375 24.734375 19.546875 24.0625 19.636719 C 23.859375 19.664062 23.753906 19.691406 23.660156 19.777344 C 23.398438 20.015625 23.394531 20.566406 23.605469 20.707031 C 23.839844 20.859375 24.140625 20.382812 24.875 20.351562 C 25.011719 20.347656 25.375 20.335938 25.726562 20.535156 C 26.175781 20.796875 26.320312 21.234375 26.382812 21.203125 C 26.449219 21.171875 26.351562 20.753906 26.128906 20.375 " fill-opacity="1" fill-rule="nonzero"/><path fill="#8e3d34" d="M 26.132812 20.195312 C 26.023438 20.007812 25.886719 19.78125 25.625 19.601562 C 25.195312 19.308594 24.738281 19.367188 24.066406 19.457031 C 23.867188 19.484375 23.757812 19.515625 23.667969 19.597656 C 23.40625 19.839844 23.402344 20.390625 23.613281 20.527344 C 23.847656 20.683594 24.148438 20.203125 24.878906 20.175781 C 25.015625 20.167969 25.378906 20.15625 25.730469 20.359375 C 26.183594 20.617188 26.324219 21.058594 26.390625 21.027344 C 26.453125 20.996094 26.355469 20.574219 26.132812 20.195312 " fill-opacity="1" fill-rule="nonzero"/><path fill="#aa1d17" d="M 24.386719 24.9375 C 24.382812 24.945312 23.722656 25.703125 22.523438 25.664062 C 22.511719 25.660156 22.5 25.660156 22.488281 25.660156 C 21.3125 25.605469 20.734375 24.84375 20.710938 24.808594 L 20.519531 24.953125 C 20.546875 24.988281 21.1875 25.839844 22.476562 25.902344 C 22.488281 25.902344 22.503906 25.902344 22.515625 25.902344 C 23.828125 25.949219 24.539062 25.132812 24.570312 25.097656 L 24.386719 24.9375 " fill-opacity="1" fill-rule="nonzero"/><path fill="#a05342" d="M 22.496094 15.523438 C 22.488281 15.53125 22.496094 15.523438 22.496094 15.523438 " fill-opacity="1" fill-rule="nonzero"/><path fill="#a05342" d="M 22.480469 15.554688 C 22.480469 15.550781 22.480469 15.546875 22.484375 15.542969 C 22.488281 15.535156 22.476562 15.550781 22.496094 15.523438 C 22.496094 15.523438 22.488281 15.53125 22.496094 15.523438 L 22.496094 15.519531 L 22.496094 15.523438 C 22.5 15.515625 22.507812 15.511719 22.515625 15.507812 C 22.519531 15.503906 22.523438 15.503906 22.523438 15.503906 C 22.535156 15.5 22.539062 15.5 22.539062 15.5 C 22.535156 15.5 22.527344 15.5 22.519531 15.496094 C 22.503906 15.492188 22.484375 15.484375 22.464844 15.476562 C 22.433594 15.46875 22.402344 15.457031 22.371094 15.441406 C 22.402344 15.472656 22.433594 15.503906 22.453125 15.535156 C 22.464844 15.550781 22.472656 15.566406 22.476562 15.574219 C 22.480469 15.574219 22.480469 15.578125 22.476562 15.566406 C 22.476562 15.566406 22.476562 15.558594 22.480469 15.554688 " fill-opacity="1" fill-rule="nonzero"/><path fill="#a05342" d="M 22.929688 15.03125 C 22.929688 15.027344 22.929688 15.023438 22.929688 15.019531 C 22.929688 15.015625 22.933594 15.007812 22.933594 15 C 22.9375 14.996094 22.945312 14.984375 22.949219 14.980469 C 22.949219 14.980469 22.949219 14.980469 22.945312 14.980469 C 22.945312 14.980469 22.945312 14.984375 22.949219 14.980469 C 22.949219 14.976562 22.949219 14.976562 22.949219 14.980469 C 22.949219 14.976562 22.953125 14.976562 22.953125 14.972656 C 22.960938 14.964844 22.976562 14.957031 22.980469 14.957031 C 22.984375 14.957031 22.988281 14.953125 22.992188 14.953125 C 23 14.953125 22.996094 14.953125 23 14.953125 C 23.003906 14.953125 23.003906 14.953125 23 14.953125 C 22.996094 14.953125 22.988281 14.949219 22.980469 14.945312 C 22.945312 14.9375 22.90625 14.917969 22.867188 14.902344 C 22.820312 14.882812 22.769531 14.867188 22.71875 14.847656 C 22.738281 14.859375 22.753906 14.871094 22.769531 14.882812 C 22.800781 14.90625 22.828125 14.933594 22.855469 14.957031 C 22.882812 14.984375 22.910156 15.011719 22.925781 15.035156 C 22.929688 15.042969 22.933594 15.046875 22.933594 15.046875 C 22.933594 15.046875 22.933594 15.046875 22.929688 15.042969 C 22.929688 15.039062 22.929688 15.039062 22.929688 15.03125 " fill-opacity="1" fill-rule="nonzero"/><path fill="#a05342" d="M 22.636719 15.644531 C 22.660156 15.613281 22.648438 15.625 22.65625 15.613281 C 22.65625 15.609375 22.660156 15.601562 22.660156 15.597656 C 22.664062 15.585938 22.664062 15.574219 22.664062 15.566406 C 22.664062 15.535156 22.65625 15.515625 22.648438 15.5 C 22.636719 15.46875 22.621094 15.449219 22.609375 15.425781 C 22.550781 15.34375 22.484375 15.28125 22.414062 15.222656 C 22.34375 15.164062 22.265625 15.109375 22.1875 15.066406 C 22.058594 14.992188 21.921875 14.9375 21.777344 14.90625 C 21.710938 14.910156 21.648438 14.914062 21.582031 14.925781 C 21.5 14.9375 21.417969 14.953125 21.335938 14.976562 C 21.296875 14.984375 21.257812 15 21.21875 15.011719 C 21.203125 15.019531 21.183594 15.027344 21.171875 15.035156 C 21.167969 15.035156 21.167969 15.035156 21.167969 15.039062 C 21.164062 15.039062 21.167969 15.035156 21.167969 15.035156 C 21.167969 15.035156 21.167969 15.035156 21.171875 15.03125 C 21.175781 15.03125 21.179688 15.027344 21.179688 15.023438 C 21.179688 15.023438 21.191406 15.011719 21.195312 14.988281 C 21.199219 14.976562 21.1875 14.9375 21.183594 14.921875 C 21.179688 14.914062 21.167969 14.898438 21.15625 14.890625 C 21.132812 14.875 21.125 14.875 21.125 14.875 C 21.121094 14.875 21.117188 14.875 21.117188 14.875 C 21.121094 14.875 21.117188 14.875 21.121094 14.875 C 21.132812 14.875 21.15625 14.871094 21.179688 14.871094 L 21.246094 14.867188 C 21.289062 14.863281 21.335938 14.863281 21.382812 14.863281 C 21.476562 14.863281 21.570312 14.867188 21.660156 14.882812 C 21.699219 14.886719 21.738281 14.894531 21.777344 14.90625 C 21.878906 14.898438 21.980469 14.898438 22.082031 14.90625 C 22.125 14.910156 22.164062 14.914062 22.207031 14.917969 L 22.269531 14.929688 L 22.328125 14.9375 C 22.410156 14.953125 22.488281 14.972656 22.570312 14.996094 C 22.648438 15.019531 22.722656 15.046875 22.800781 15.074219 C 22.839844 15.089844 22.878906 15.105469 22.925781 15.121094 C 22.9375 15.125 22.949219 15.128906 22.964844 15.128906 C 22.972656 15.132812 22.980469 15.132812 22.992188 15.132812 C 23.003906 15.132812 23.007812 15.136719 23.019531 15.132812 C 23.023438 15.132812 23.03125 15.128906 23.035156 15.128906 C 23.042969 15.125 23.0625 15.117188 23.070312 15.109375 C 23.085938 15.097656 23.082031 15.097656 23.082031 15.097656 C 23.074219 15.109375 23.097656 15.078125 23.101562 15.070312 C 23.101562 15.0625 23.105469 15.050781 23.105469 15.042969 C 23.109375 15.035156 23.109375 15.03125 23.109375 15.023438 C 23.105469 15.011719 23.105469 15.003906 23.105469 14.996094 C 23.101562 14.988281 23.097656 14.984375 23.097656 14.980469 C 23.089844 14.957031 23.082031 14.949219 23.074219 14.933594 C 23.042969 14.890625 23.007812 14.859375 22.976562 14.828125 C 22.945312 14.800781 22.910156 14.769531 22.875 14.746094 C 22.804688 14.695312 22.734375 14.648438 22.660156 14.609375 C 22.515625 14.53125 22.359375 14.472656 22.203125 14.441406 C 22.046875 14.410156 21.894531 14.402344 21.746094 14.410156 C 21.742188 14.410156 21.734375 14.410156 21.730469 14.410156 C 21.699219 14.421875 21.667969 14.433594 21.636719 14.445312 C 21.609375 14.460938 21.578125 14.472656 21.558594 14.488281 C 21.550781 14.492188 21.546875 14.496094 21.546875 14.496094 C 21.542969 14.5 21.546875 14.5 21.546875 14.496094 C 21.546875 14.5 21.542969 14.5 21.546875 14.496094 C 21.546875 14.496094 21.550781 14.492188 21.550781 14.488281 C 21.550781 14.484375 21.554688 14.480469 21.554688 14.472656 C 21.550781 14.464844 21.554688 14.476562 21.546875 14.449219 L 21.550781 14.453125 C 21.550781 14.453125 21.546875 14.441406 21.539062 14.4375 C 21.523438 14.421875 21.527344 14.425781 21.523438 14.421875 C 21.519531 14.421875 21.519531 14.421875 21.519531 14.421875 C 21.519531 14.421875 21.519531 14.421875 21.523438 14.421875 C 21.527344 14.421875 21.53125 14.421875 21.539062 14.421875 C 21.597656 14.421875 21.664062 14.414062 21.730469 14.410156 C 21.816406 14.378906 21.902344 14.359375 21.988281 14.339844 C 22.101562 14.316406 22.214844 14.304688 22.320312 14.304688 C 22.53125 14.296875 22.714844 14.328125 22.859375 14.367188 C 23.007812 14.40625 23.121094 14.453125 23.199219 14.484375 C 23.273438 14.515625 23.3125 14.535156 23.3125 14.535156 C 23.3125 14.535156 23.273438 14.511719 23.203125 14.472656 C 23.128906 14.433594 23.019531 14.378906 22.871094 14.328125 C 22.726562 14.277344 22.539062 14.234375 22.320312 14.226562 C 22.210938 14.222656 22.09375 14.226562 21.972656 14.242188 C 21.847656 14.261719 21.722656 14.289062 21.59375 14.339844 C 21.558594 14.351562 21.527344 14.363281 21.492188 14.386719 C 21.484375 14.390625 21.472656 14.398438 21.464844 14.40625 C 21.457031 14.414062 21.453125 14.417969 21.445312 14.425781 C 21.441406 14.429688 21.4375 14.441406 21.433594 14.449219 C 21.433594 14.453125 21.429688 14.460938 21.429688 14.46875 C 21.433594 14.480469 21.425781 14.46875 21.4375 14.5 L 21.4375 14.503906 C 21.4375 14.503906 21.445312 14.515625 21.453125 14.523438 C 21.46875 14.539062 21.472656 14.535156 21.480469 14.539062 C 21.488281 14.542969 21.492188 14.542969 21.496094 14.542969 C 21.5 14.546875 21.503906 14.546875 21.507812 14.546875 C 21.519531 14.546875 21.53125 14.546875 21.539062 14.550781 C 21.617188 14.550781 21.679688 14.542969 21.75 14.542969 C 21.890625 14.542969 22.03125 14.554688 22.171875 14.589844 C 22.3125 14.625 22.449219 14.679688 22.582031 14.757812 C 22.628906 14.785156 22.675781 14.816406 22.71875 14.847656 C 22.769531 14.867188 22.820312 14.882812 22.867188 14.902344 C 22.90625 14.917969 22.945312 14.9375 22.980469 14.945312 C 22.988281 14.949219 22.996094 14.953125 23 14.953125 C 23.003906 14.953125 23.003906 14.953125 23 14.953125 C 22.996094 14.953125 23 14.953125 22.992188 14.953125 C 22.988281 14.953125 22.984375 14.957031 22.980469 14.957031 C 22.976562 14.957031 22.960938 14.964844 22.953125 14.972656 C 22.953125 14.976562 22.949219 14.976562 22.949219 14.980469 C 22.945312 14.984375 22.9375 14.996094 22.933594 15 C 22.933594 15.007812 22.929688 15.015625 22.929688 15.019531 C 22.929688 15.023438 22.929688 15.027344 22.929688 15.03125 C 22.929688 15.039062 22.929688 15.039062 22.929688 15.042969 C 22.933594 15.046875 22.933594 15.046875 22.933594 15.046875 C 22.933594 15.046875 22.929688 15.042969 22.925781 15.035156 C 22.910156 15.011719 22.882812 14.984375 22.855469 14.957031 C 22.828125 14.933594 22.800781 14.90625 22.769531 14.882812 C 22.753906 14.871094 22.738281 14.859375 22.71875 14.847656 C 22.6875 14.835938 22.65625 14.824219 22.621094 14.816406 C 22.539062 14.789062 22.453125 14.765625 22.363281 14.746094 C 22.34375 14.742188 22.320312 14.738281 22.296875 14.734375 L 22.234375 14.726562 C 22.1875 14.71875 22.144531 14.714844 22.097656 14.710938 C 21.917969 14.695312 21.734375 14.699219 21.554688 14.726562 C 21.464844 14.738281 21.375 14.753906 21.285156 14.78125 C 21.238281 14.792969 21.195312 14.804688 21.148438 14.824219 C 21.125 14.832031 21.101562 14.839844 21.074219 14.855469 C 21.070312 14.859375 21.0625 14.863281 21.054688 14.867188 C 21.050781 14.871094 21.042969 14.875 21.039062 14.878906 C 21.035156 14.882812 21.035156 14.882812 21.027344 14.886719 C 21.023438 14.894531 21.019531 14.898438 21.015625 14.90625 C 21.011719 14.90625 21.003906 14.921875 20.996094 14.949219 C 20.988281 14.96875 21.019531 15.058594 21.007812 15.019531 C 21.011719 15.027344 21.027344 15.046875 21.042969 15.058594 C 21.070312 15.074219 21.082031 15.074219 21.082031 15.074219 C 21.089844 15.078125 21.101562 15.078125 21.105469 15.078125 C 21.109375 15.078125 21.117188 15.078125 21.117188 15.078125 C 21.148438 15.078125 21.171875 15.074219 21.191406 15.074219 L 21.257812 15.070312 C 21.300781 15.066406 21.34375 15.066406 21.382812 15.066406 C 21.46875 15.0625 21.550781 15.070312 21.632812 15.082031 C 21.792969 15.105469 21.949219 15.15625 22.089844 15.238281 C 22.160156 15.277344 22.230469 15.324219 22.292969 15.375 C 22.320312 15.394531 22.34375 15.417969 22.371094 15.441406 C 22.402344 15.457031 22.433594 15.46875 22.464844 15.476562 C 22.484375 15.484375 22.503906 15.492188 22.519531 15.496094 C 22.527344 15.5 22.535156 15.5 22.539062 15.5 C 22.539062 15.5 22.535156 15.5 22.523438 15.503906 C 22.523438 15.503906 22.519531 15.503906 22.515625 15.507812 C 22.507812 15.511719 22.5 15.515625 22.496094 15.523438 C 22.476562 15.550781 22.488281 15.535156 22.484375 15.542969 C 22.480469 15.546875 22.480469 15.550781 22.480469 15.554688 C 22.476562 15.558594 22.476562 15.566406 22.476562 15.566406 C 22.480469 15.578125 22.480469 15.574219 22.476562 15.574219 C 22.472656 15.566406 22.464844 15.550781 22.453125 15.535156 C 22.433594 15.503906 22.402344 15.472656 22.371094 15.441406 C 22.324219 15.425781 22.277344 15.410156 22.230469 15.390625 C 22.070312 15.335938 21.90625 15.292969 21.742188 15.269531 C 21.582031 15.246094 21.417969 15.238281 21.265625 15.242188 C 21.109375 15.25 20.957031 15.269531 20.816406 15.300781 C 20.742188 15.316406 20.675781 15.335938 20.605469 15.359375 C 20.570312 15.375 20.539062 15.386719 20.503906 15.402344 C 20.496094 15.410156 20.488281 15.414062 20.476562 15.417969 L 20.46875 15.425781 L 20.460938 15.429688 C 20.460938 15.433594 20.457031 15.433594 20.453125 15.4375 C 20.453125 15.441406 20.449219 15.441406 20.449219 15.445312 C 20.441406 15.453125 20.4375 15.46875 20.4375 15.480469 C 20.433594 15.492188 20.453125 15.539062 20.445312 15.519531 C 20.445312 15.515625 20.453125 15.53125 20.464844 15.535156 C 20.472656 15.542969 20.484375 15.546875 20.492188 15.546875 L 20.5 15.546875 C 20.503906 15.546875 20.507812 15.546875 20.511719 15.546875 C 20.515625 15.546875 20.523438 15.546875 20.527344 15.546875 L 20.554688 15.546875 C 20.6875 15.527344 20.808594 15.515625 20.925781 15.515625 C 21.042969 15.511719 21.15625 15.519531 21.261719 15.535156 C 21.46875 15.5625 21.648438 15.621094 21.785156 15.679688 C 21.925781 15.742188 22.03125 15.808594 22.097656 15.851562 C 22.167969 15.898438 22.203125 15.925781 22.203125 15.925781 C 22.203125 15.925781 22.167969 15.898438 22.105469 15.84375 C 22.039062 15.792969 21.941406 15.71875 21.804688 15.644531 C 21.667969 15.570312 21.488281 15.5 21.273438 15.457031 C 21.171875 15.4375 21.066406 15.421875 20.953125 15.417969 C 20.914062 15.421875 20.878906 15.429688 20.84375 15.433594 C 20.773438 15.445312 20.707031 15.460938 20.644531 15.480469 C 20.613281 15.492188 20.582031 15.5 20.558594 15.511719 C 20.550781 15.515625 20.546875 15.519531 20.539062 15.519531 C 20.539062 15.523438 20.539062 15.523438 20.539062 15.523438 C 20.539062 15.523438 20.542969 15.519531 20.542969 15.519531 C 20.542969 15.519531 20.542969 15.515625 20.546875 15.515625 C 20.550781 15.511719 20.554688 15.496094 20.554688 15.484375 C 20.554688 15.480469 20.546875 15.460938 20.546875 15.453125 C 20.542969 15.449219 20.539062 15.441406 20.535156 15.441406 C 20.527344 15.433594 20.519531 15.429688 20.511719 15.429688 C 20.515625 15.429688 20.519531 15.429688 20.523438 15.429688 L 20.542969 15.429688 C 20.671875 15.417969 20.804688 15.410156 20.925781 15.417969 C 20.9375 15.417969 20.945312 15.417969 20.953125 15.417969 C 21.054688 15.402344 21.160156 15.394531 21.269531 15.394531 C 21.5625 15.390625 21.867188 15.449219 22.167969 15.5625 C 22.246094 15.589844 22.320312 15.621094 22.402344 15.652344 C 22.421875 15.660156 22.445312 15.667969 22.46875 15.675781 C 22.480469 15.679688 22.492188 15.683594 22.507812 15.683594 C 22.527344 15.6875 22.542969 15.691406 22.585938 15.679688 C 22.589844 15.679688 22.59375 15.679688 22.605469 15.671875 C 22.613281 15.667969 22.621094 15.660156 22.628906 15.65625 C 22.636719 15.648438 22.632812 15.648438 22.636719 15.648438 L 22.636719 15.644531 " fill-opacity="1" fill-rule="nonzero"/><path fill="#a05342" d="M 21.183594 14.921875 C 21.1875 14.925781 21.1875 14.925781 21.183594 14.921875 " fill-opacity="1" fill-rule="nonzero"/><path fill="#a05342" d="M 21.382812 14.863281 C 21.335938 14.863281 21.289062 14.863281 21.246094 14.867188 L 21.179688 14.871094 C 21.15625 14.871094 21.132812 14.875 21.121094 14.875 C 21.117188 14.875 21.121094 14.875 21.117188 14.875 C 21.117188 14.875 21.121094 14.875 21.125 14.875 C 21.125 14.875 21.132812 14.875 21.15625 14.890625 C 21.167969 14.898438 21.179688 14.914062 21.183594 14.921875 C 21.179688 14.910156 21.179688 14.90625 21.183594 14.921875 C 21.1875 14.925781 21.1875 14.925781 21.183594 14.921875 C 21.1875 14.925781 21.1875 14.925781 21.183594 14.921875 C 21.1875 14.9375 21.199219 14.976562 21.195312 14.988281 C 21.191406 15.011719 21.179688 15.023438 21.179688 15.023438 C 21.179688 15.027344 21.175781 15.03125 21.171875 15.03125 C 21.167969 15.035156 21.167969 15.035156 21.167969 15.035156 C 21.167969 15.035156 21.164062 15.039062 21.167969 15.039062 C 21.167969 15.035156 21.167969 15.035156 21.171875 15.035156 C 21.183594 15.027344 21.203125 15.019531 21.21875 15.011719 C 21.257812 15 21.296875 14.984375 21.335938 14.976562 C 21.417969 14.953125 21.5 14.9375 21.582031 14.925781 C 21.648438 14.914062 21.710938 14.910156 21.777344 14.90625 C 21.738281 14.894531 21.699219 14.886719 21.660156 14.882812 C 21.570312 14.867188 21.476562 14.863281 21.382812 14.863281 " fill-opacity="1" fill-rule="nonzero"/><path fill="#a05342" d="M 21.523438 14.421875 C 21.519531 14.421875 21.519531 14.421875 21.519531 14.421875 C 21.519531 14.421875 21.519531 14.421875 21.523438 14.421875 C 21.527344 14.425781 21.523438 14.421875 21.539062 14.4375 C 21.546875 14.441406 21.550781 14.453125 21.550781 14.453125 L 21.546875 14.449219 C 21.554688 14.476562 21.550781 14.464844 21.554688 14.472656 C 21.554688 14.480469 21.550781 14.484375 21.550781 14.488281 C 21.550781 14.492188 21.546875 14.496094 21.546875 14.496094 C 21.546875 14.496094 21.550781 14.492188 21.558594 14.488281 C 21.578125 14.472656 21.609375 14.460938 21.636719 14.445312 C 21.667969 14.433594 21.699219 14.421875 21.730469 14.410156 C 21.664062 14.414062 21.597656 14.421875 21.539062 14.421875 C 21.53125 14.421875 21.527344 14.421875 21.523438 14.421875 " fill-opacity="1" fill-rule="nonzero"/><path fill="#a05342" d="M 20.546875 15.453125 C 20.542969 15.445312 20.542969 15.445312 20.546875 15.453125 " fill-opacity="1" fill-rule="nonzero"/><path fill="#a05342" d="M 21.183594 14.921875 C 21.179688 14.90625 21.179688 14.910156 21.183594 14.921875 " fill-opacity="1" fill-rule="nonzero"/><path fill="#a05342" d="M 20.542969 15.429688 L 20.523438 15.429688 C 20.519531 15.429688 20.515625 15.429688 20.511719 15.429688 C 20.519531 15.429688 20.527344 15.433594 20.535156 15.441406 C 20.539062 15.441406 20.542969 15.449219 20.546875 15.453125 C 20.542969 15.445312 20.542969 15.445312 20.546875 15.453125 C 20.546875 15.460938 20.554688 15.480469 20.554688 15.484375 C 20.554688 15.496094 20.550781 15.511719 20.546875 15.515625 C 20.542969 15.515625 20.542969 15.519531 20.542969 15.519531 C 20.542969 15.519531 20.539062 15.523438 20.539062 15.523438 C 20.539062 15.523438 20.539062 15.523438 20.539062 15.519531 C 20.546875 15.519531 20.550781 15.515625 20.558594 15.511719 C 20.582031 15.5 20.613281 15.492188 20.644531 15.480469 C 20.707031 15.460938 20.773438 15.445312 20.84375 15.433594 C 20.878906 15.429688 20.914062 15.421875 20.953125 15.417969 C 20.945312 15.417969 20.9375 15.417969 20.925781 15.417969 C 20.804688 15.410156 20.671875 15.417969 20.542969 15.429688 " fill-opacity="1" fill-rule="nonzero"/><path fill="#541713" d="M 21.046875 21.746094 C 20.988281 21.328125 20.753906 21.019531 20.523438 21.0625 C 20.292969 21.105469 20.152344 21.484375 20.210938 21.90625 C 20.265625 22.328125 20.5 22.632812 20.734375 22.589844 C 20.964844 22.546875 21.105469 22.167969 21.046875 21.746094 " fill-opacity="1" fill-rule="nonzero"/><path fill="#541713" d="M 24.625 21.207031 C 24.398438 21.148438 24.144531 21.4375 24.054688 21.851562 C 23.96875 22.269531 24.082031 22.65625 24.3125 22.714844 C 24.539062 22.773438 24.792969 22.484375 24.882812 22.070312 C 24.96875 21.652344 24.855469 21.265625 24.625 21.207031 " fill-opacity="1" fill-rule="nonzero"/></svg>