<svg xmlns="http://www.w3.org/2000/svg" xmlns:xlink="http://www.w3.org/1999/xlink" width="60" zoomAndPan="magnify" viewBox="0 0 45 44.999999" height="60" preserveAspectRatio="xMidYMid meet" version="1.0"><defs><clipPath id="id1"><path d="M 13.5 13.5 L 31.5 13.5 L 31.5 31.5 L 13.5 31.5 Z M 13.5 13.5 " clip-rule="nonzero"/></clipPath><clipPath id="id2"><path d="M 17 26 L 28 26 L 28 31.5 L 17 31.5 Z M 17 26 " clip-rule="nonzero"/></clipPath><clipPath id="id3"><path d="M 20 26 L 25 26 L 25 31.5 L 20 31.5 Z M 20 26 " clip-rule="nonzero"/></clipPath></defs><g clip-path="url(#id1)"><path fill="#87a285" d="M 31.5 22.5 C 31.5 27.472656 27.472656 31.5 22.5 31.5 C 17.53125 31.5 13.5 27.472656 13.5 22.5 C 13.5 17.53125 17.53125 13.5 22.5 13.5 C 27.472656 13.5 31.5 17.53125 31.5 22.5 " fill-opacity="1" fill-rule="nonzero"/></g><g clip-path="url(#id2)"><path fill="#1d4062" d="M 22.5 31.5 C 24.289062 31.5 25.953125 30.976562 27.355469 30.078125 C 27.253906 29.21875 27.121094 28.335938 26.984375 28.152344 C 26.710938 27.773438 25.230469 26.222656 22.5 26.222656 C 19.773438 26.222656 18.292969 27.773438 18.015625 28.152344 C 17.882812 28.335938 17.75 29.21875 17.648438 30.078125 C 19.046875 30.976562 20.714844 31.5 22.5 31.5 " fill-opacity="1" fill-rule="nonzero"/></g><path fill="#f8de9c" d="M 22.402344 25.539062 L 21.203125 24.898438 L 21.203125 26.324219 C 21.203125 26.324219 21.421875 27.804688 22.402344 27.804688 C 23.382812 27.804688 23.601562 26.324219 23.601562 26.324219 L 23.601562 24.898438 L 22.402344 25.539062 " fill-opacity="1" fill-rule="nonzero"/><path fill="#e9cc87" d="M 22.402344 25.539062 L 21.203125 26.324219 L 21.203125 24.902344 Z M 22.402344 25.539062 " fill-opacity="1" fill-rule="nonzero"/><path fill="#fde9ac" d="M 25.453125 20.535156 C 25.453125 16.289062 22.402344 16.65625 22.402344 16.65625 C 22.402344 16.65625 19.347656 16.289062 19.347656 20.535156 C 19.347656 20.535156 18.648438 20.339844 18.648438 21.203125 C 18.648438 22.0625 19.441406 22.507812 19.441406 22.507812 C 19.441406 22.507812 21.09375 25.539062 22.402344 25.539062 C 23.710938 25.539062 25.363281 22.507812 25.363281 22.507812 C 25.363281 22.507812 26.15625 22.0625 26.15625 21.203125 C 26.15625 20.339844 25.453125 20.535156 25.453125 20.535156 " fill-opacity="1" fill-rule="nonzero"/><path fill="#f8de9c" d="M 22.402344 16.65625 C 22.402344 16.65625 19.347656 16.289062 19.347656 20.535156 C 19.347656 20.535156 18.648438 20.339844 18.648438 21.203125 C 18.648438 22.0625 19.441406 22.507812 19.441406 22.507812 C 19.441406 22.507812 21.09375 25.539062 22.402344 25.539062 L 22.402344 16.65625 " fill-opacity="1" fill-rule="nonzero"/><path fill="#776361" d="M 20.050781 19.921875 L 19.585938 21.609375 L 19.347656 20.535156 C 19.230469 20.449219 18.953125 20.5625 18.953125 20.5625 C 18.953125 20.5625 17.988281 17.785156 19.898438 16.304688 C 21.808594 14.824219 24.238281 15.535156 24.496094 16.648438 C 24.496094 16.648438 25.75 16.480469 26.15625 17.527344 C 26.558594 18.578125 25.953125 20.628906 25.953125 20.628906 C 25.953125 20.628906 25.789062 20.445312 25.453125 20.535156 L 25.421875 21.609375 L 25.097656 20.058594 C 25.097656 20.058594 24.40625 19.148438 24.425781 18.164062 C 24.425781 18.164062 22.257812 20.628906 20.050781 19.921875 " fill-opacity="1" fill-rule="nonzero"/><g clip-path="url(#id3)"><path fill="#e8eeed" d="M 23.601562 26.3125 L 23.601562 26.324219 C 23.601562 26.324219 23.382812 27.804688 22.402344 27.804688 C 21.488281 27.804688 21.238281 26.527344 21.207031 26.347656 C 21.003906 26.386719 20.808594 26.433594 20.625 26.488281 C 21.164062 29.632812 22.402344 31.296875 22.402344 31.296875 C 22.402344 31.296875 23.652344 29.613281 24.1875 26.433594 C 24 26.386719 23.804688 26.347656 23.601562 26.3125 " fill-opacity="1" fill-rule="nonzero"/></g></svg>