<svg xmlns="http://www.w3.org/2000/svg" xmlns:xlink="http://www.w3.org/1999/xlink" width="60" zoomAndPan="magnify" viewBox="0 0 45 44.999999" height="60" preserveAspectRatio="xMidYMid meet" version="1.0"><defs><clipPath id="id1"><path d="M 13.5 13.5 L 31.5 13.5 L 31.5 31.5 L 13.5 31.5 Z M 13.5 13.5 " clip-rule="nonzero"/></clipPath><clipPath id="id2"><path d="M 16 27 L 29 27 L 29 31.5 L 16 31.5 Z M 16 27 " clip-rule="nonzero"/></clipPath></defs><g clip-path="url(#id1)"><path fill="#ffcc66" d="M 31.5 22.5 C 31.5 27.472656 27.46875 31.5 22.5 31.5 C 17.527344 31.5 13.5 27.472656 13.5 22.5 C 13.5 17.527344 17.527344 13.5 22.5 13.5 C 27.46875 13.5 31.5 17.527344 31.5 22.5 Z M 31.5 22.5 " fill-opacity="1" fill-rule="nonzero"/></g><path fill="#f8c7b0" d="M 26.390625 23.128906 C 26.378906 23.132812 26.367188 23.136719 26.355469 23.136719 C 25.882812 24.703125 24.859375 25.910156 23.589844 26.355469 L 23.589844 27.546875 L 21.4375 27.546875 L 21.4375 26.359375 C 20.167969 25.917969 19.136719 24.707031 18.660156 23.136719 C 18.65625 23.132812 18.648438 23.132812 18.640625 23.128906 C 17.433594 22.765625 17.363281 21.355469 17.65625 20.90625 C 17.921875 20.492188 18.332031 20.664062 18.394531 20.691406 C 19.394531 18.089844 20.386719 17.460938 22.546875 17.460938 C 24.703125 17.460938 25.785156 17.863281 26.625 20.699219 C 26.625 20.699219 27.082031 20.453125 27.375 20.90625 C 27.667969 21.355469 27.597656 22.765625 26.390625 23.128906 Z M 26.390625 23.128906 " fill-opacity="1" fill-rule="nonzero"/><path fill="#f8b3b0" d="M 22.773438 26.339844 C 23.488281 26.339844 24.160156 26.101562 24.746094 25.683594 C 24.101562 26.226562 23.335938 26.542969 22.511719 26.542969 C 22.257812 26.542969 22.015625 26.511719 21.777344 26.457031 L 21.777344 27.636719 L 21.4375 27.546875 L 21.4375 26.359375 C 20.167969 25.917969 19.136719 24.707031 18.660156 23.136719 C 18.65625 23.132812 18.648438 23.132812 18.640625 23.128906 C 17.433594 22.765625 17.363281 21.355469 17.65625 20.90625 C 17.742188 20.769531 17.84375 20.695312 17.945312 20.660156 C 17.9375 20.675781 17.929688 20.691406 17.917969 20.703125 C 17.449219 21.179688 17.457031 22.566406 18.902344 22.925781 C 18.910156 22.929688 18.917969 22.929688 18.925781 22.933594 C 19.527344 24.929688 21.023438 26.339844 22.773438 26.339844 Z M 17.847656 21.457031 C 17.726562 21.816406 18.101562 22.464844 18.503906 22.660156 C 18.503906 22.660156 18.378906 22.140625 18.378906 21.304688 C 18.378906 21.304688 17.972656 21.09375 17.847656 21.457031 Z M 27.179688 21.457031 C 27.058594 21.09375 26.652344 21.304688 26.652344 21.304688 C 26.652344 22.140625 26.527344 22.660156 26.527344 22.660156 C 26.925781 22.464844 27.304688 21.816406 27.179688 21.457031 Z M 27.179688 21.457031 " fill-opacity="1" fill-rule="nonzero"/><g clip-path="url(#id2)"><path fill="#ff6633" d="M 22.945312 31.488281 C 22.796875 31.496094 22.648438 31.5 22.5 31.5 C 22.351562 31.5 22.203125 31.496094 22.054688 31.488281 C 22.003906 31.484375 21.953125 31.480469 21.898438 31.476562 C 21.804688 31.472656 21.710938 31.464844 21.617188 31.457031 C 21.550781 31.449219 21.488281 31.441406 21.421875 31.433594 C 21.34375 31.425781 21.265625 31.414062 21.191406 31.402344 C 21.117188 31.394531 21.042969 31.378906 20.972656 31.367188 C 20.902344 31.355469 20.835938 31.34375 20.769531 31.332031 C 20.691406 31.316406 20.613281 31.300781 20.53125 31.28125 C 20.476562 31.269531 20.417969 31.257812 20.363281 31.242188 C 20.277344 31.222656 20.191406 31.199219 20.105469 31.175781 C 20.058594 31.164062 20.015625 31.148438 19.96875 31.136719 C 19.875 31.109375 19.78125 31.078125 19.6875 31.050781 C 19.65625 31.039062 19.625 31.027344 19.59375 31.015625 C 19.488281 30.980469 19.382812 30.945312 19.277344 30.902344 C 19.265625 30.898438 19.253906 30.894531 19.238281 30.886719 C 18.246094 30.5 17.335938 29.941406 16.550781 29.246094 C 17.796875 28.351562 21.175781 27.292969 22.457031 27.261719 C 22.46875 27.261719 22.484375 27.261719 22.5 27.261719 C 22.515625 27.261719 22.53125 27.261719 22.542969 27.261719 C 23.824219 27.292969 27.203125 28.351562 28.449219 29.246094 C 27.664062 29.941406 26.757812 30.5 25.765625 30.886719 C 25.75 30.890625 25.734375 30.898438 25.71875 30.90625 C 25.617188 30.945312 25.511719 30.980469 25.410156 31.015625 C 25.378906 31.027344 25.34375 31.039062 25.3125 31.050781 C 25.21875 31.078125 25.125 31.109375 25.03125 31.136719 C 24.984375 31.148438 24.9375 31.164062 24.894531 31.175781 C 24.808594 31.199219 24.722656 31.222656 24.636719 31.242188 C 24.582031 31.253906 24.523438 31.269531 24.464844 31.28125 C 24.386719 31.300781 24.308594 31.316406 24.230469 31.332031 C 24.164062 31.34375 24.09375 31.355469 24.023438 31.367188 C 23.953125 31.378906 23.882812 31.394531 23.8125 31.402344 C 23.730469 31.414062 23.652344 31.425781 23.574219 31.433594 C 23.507812 31.441406 23.445312 31.449219 23.382812 31.457031 C 23.285156 31.464844 23.191406 31.472656 23.09375 31.476562 C 23.046875 31.480469 22.996094 31.484375 22.945312 31.488281 Z M 22.945312 31.488281 " fill-opacity="1" fill-rule="nonzero"/></g><path fill="#371516" d="M 28 28.96875 C 26.875 28.339844 24.949219 27.691406 23.589844 27.410156 L 23.589844 26.355469 C 24.859375 25.910156 25.882812 24.703125 26.355469 23.136719 C 26.367188 23.136719 26.378906 23.132812 26.390625 23.128906 C 27.171875 22.894531 27.476562 22.21875 27.515625 21.652344 C 27.695312 23.570312 30.015625 26.957031 28 28.96875 Z M 17.042969 28.945312 C 18.179688 28.316406 20.097656 27.675781 21.4375 27.402344 L 21.4375 26.359375 C 20.167969 25.917969 19.136719 24.707031 18.660156 23.136719 C 18.65625 23.132812 18.648438 23.132812 18.640625 23.128906 C 17.433594 22.765625 17.363281 21.355469 17.65625 20.90625 C 17.921875 20.488281 18.332031 20.664062 18.394531 20.691406 C 19.394531 18.089844 20.386719 17.460938 22.546875 17.460938 C 24.703125 17.460938 25.785156 17.863281 26.625 20.699219 C 26.625 20.699219 27.082031 20.453125 27.375 20.90625 C 27.4375 21 27.480469 21.132812 27.503906 21.292969 C 27.519531 19.214844 28.265625 16.785156 25.636719 15.96875 C 25 15.769531 24.28125 15.769531 23.761719 15.816406 C 23.050781 15.488281 21.445312 14.605469 19.734375 15.390625 C 17.460938 16.4375 17.519531 19.347656 17.492188 21.457031 C 17.464844 23.371094 14.550781 26.992188 17.042969 28.945312 Z M 21.316406 21.863281 C 21.316406 21.628906 21.125 21.4375 20.890625 21.4375 C 20.65625 21.4375 20.464844 21.628906 20.464844 21.863281 L 20.464844 22.414062 C 20.464844 22.652344 20.65625 22.84375 20.890625 22.84375 C 21.125 22.84375 21.316406 22.652344 21.316406 22.414062 Z M 20.964844 21.449219 C 20.957031 21.445312 20.949219 21.445312 20.945312 21.445312 L 20.925781 21.441406 C 20.914062 21.441406 20.898438 21.441406 20.886719 21.441406 C 20.863281 21.441406 20.839844 21.441406 20.816406 21.441406 C 20.769531 21.441406 20.722656 21.449219 20.675781 21.457031 C 20.628906 21.464844 20.582031 21.476562 20.535156 21.496094 C 20.515625 21.503906 20.492188 21.515625 20.46875 21.527344 C 20.457031 21.53125 20.445312 21.539062 20.4375 21.546875 L 20.421875 21.558594 C 20.421875 21.558594 20.417969 21.558594 20.421875 21.554688 L 20.421875 21.558594 L 20.417969 21.558594 L 20.417969 21.5625 L 20.410156 21.566406 C 20.367188 21.605469 20.3125 21.632812 20.246094 21.632812 C 20.175781 21.632812 20.101562 21.605469 20.03125 21.570312 C 20.082031 21.632812 20.136719 21.691406 20.21875 21.734375 C 20.257812 21.753906 20.304688 21.765625 20.355469 21.769531 C 20.402344 21.773438 20.449219 21.765625 20.5 21.753906 L 20.511719 21.753906 L 20.511719 21.75 C 20.515625 21.75 20.511719 21.75 20.515625 21.75 L 20.523438 21.75 C 20.53125 21.75 20.539062 21.75 20.546875 21.75 C 20.558594 21.75 20.574219 21.75 20.589844 21.75 C 20.617188 21.753906 20.648438 21.757812 20.675781 21.769531 C 20.707031 21.777344 20.734375 21.789062 20.765625 21.800781 C 20.777344 21.808594 20.792969 21.8125 20.804688 21.820312 C 20.8125 21.824219 20.820312 21.828125 20.824219 21.832031 L 20.835938 21.839844 C 20.835938 21.839844 20.839844 21.84375 20.839844 21.84375 Z M 18.558594 18.769531 C 18 20.046875 18.617188 21.402344 18.617188 21.402344 C 18.90625 20.34375 21.574219 19.03125 21.574219 19.03125 C 20.976562 19.5625 21.066406 19.984375 21.066406 19.984375 C 23.824219 19.5625 24.488281 17.398438 24.488281 17.398438 C 22.074219 15.386719 19.117188 17.492188 18.558594 18.769531 Z M 24.113281 17.363281 C 24.113281 17.363281 25.503906 20.171875 26.484375 21.40625 C 26.484375 21.40625 28.144531 17.402344 24.113281 17.363281 Z M 19.625 21.101562 C 19.726562 20.980469 19.847656 20.871094 19.976562 20.785156 C 20.105469 20.699219 20.246094 20.628906 20.390625 20.585938 C 20.535156 20.539062 20.683594 20.539062 20.832031 20.515625 C 20.980469 20.496094 21.132812 20.488281 21.304688 20.464844 L 21.308594 20.441406 C 21.164062 20.347656 20.996094 20.300781 20.824219 20.296875 C 20.648438 20.285156 20.480469 20.351562 20.324219 20.417969 C 20.171875 20.492188 20.03125 20.585938 19.90625 20.699219 C 19.789062 20.816406 19.683594 20.945312 19.605469 21.089844 Z M 24.589844 21.863281 C 24.589844 21.628906 24.398438 21.4375 24.164062 21.4375 C 23.929688 21.4375 23.738281 21.628906 23.738281 21.863281 L 23.738281 22.414062 C 23.738281 22.652344 23.929688 22.84375 24.164062 22.84375 C 24.398438 22.84375 24.589844 22.652344 24.589844 22.414062 Z M 24.214844 21.84375 C 24.214844 21.84375 24.21875 21.839844 24.222656 21.839844 L 24.230469 21.832031 C 24.238281 21.828125 24.242188 21.824219 24.25 21.820312 C 24.261719 21.816406 24.277344 21.808594 24.292969 21.800781 C 24.320312 21.789062 24.351562 21.777344 24.378906 21.769531 C 24.410156 21.757812 24.4375 21.753906 24.46875 21.75 C 24.484375 21.75 24.496094 21.75 24.511719 21.75 C 24.519531 21.75 24.523438 21.75 24.53125 21.75 L 24.542969 21.75 C 24.546875 21.753906 24.542969 21.75 24.542969 21.75 L 24.546875 21.753906 L 24.558594 21.753906 C 24.605469 21.765625 24.652344 21.773438 24.703125 21.769531 C 24.75 21.765625 24.796875 21.753906 24.839844 21.734375 C 24.921875 21.695312 24.976562 21.632812 25.023438 21.570312 C 24.953125 21.605469 24.878906 21.632812 24.8125 21.632812 C 24.746094 21.632812 24.691406 21.605469 24.644531 21.566406 L 24.636719 21.558594 L 24.632812 21.558594 C 24.636719 21.558594 24.632812 21.554688 24.636719 21.558594 L 24.621094 21.546875 C 24.609375 21.539062 24.597656 21.53125 24.585938 21.527344 C 24.566406 21.515625 24.542969 21.503906 24.519531 21.496094 C 24.472656 21.476562 24.425781 21.464844 24.378906 21.457031 C 24.332031 21.449219 24.285156 21.441406 24.238281 21.441406 C 24.214844 21.441406 24.191406 21.441406 24.167969 21.441406 C 24.15625 21.441406 24.144531 21.441406 24.132812 21.441406 L 24.113281 21.445312 C 24.105469 21.445312 24.101562 21.445312 24.089844 21.449219 Z M 25.449219 21.089844 C 25.375 20.945312 25.269531 20.816406 25.148438 20.699219 C 25.027344 20.585938 24.886719 20.492188 24.730469 20.417969 C 24.578125 20.351562 24.40625 20.285156 24.234375 20.296875 C 24.0625 20.300781 23.890625 20.347656 23.746094 20.441406 L 23.753906 20.464844 C 23.921875 20.488281 24.074219 20.496094 24.222656 20.515625 C 24.371094 20.539062 24.519531 20.539062 24.667969 20.585938 C 24.8125 20.628906 24.953125 20.699219 25.078125 20.785156 C 25.210938 20.871094 25.328125 20.980469 25.429688 21.101562 Z M 25.449219 21.089844 " fill-opacity="1" fill-rule="nonzero"/><path fill="#ffffff" d="M 23.5625 24.390625 C 23.5625 24.875 23.09375 25.273438 22.515625 25.273438 C 21.9375 25.273438 21.46875 24.875 21.46875 24.390625 Z M 22.515625 27.261719 C 22.515625 27.261719 22.078125 27.300781 21.4375 26.972656 L 20.800781 27.546875 L 21.605469 28.53125 Z M 23.394531 28.53125 L 24.199219 27.546875 L 23.5625 26.972656 C 22.921875 27.300781 22.484375 27.261719 22.484375 27.261719 Z M 20.6875 21.6875 C 20.589844 21.6875 20.515625 21.789062 20.515625 21.914062 C 20.515625 22.039062 20.589844 22.140625 20.6875 22.140625 C 20.78125 22.140625 20.859375 22.039062 20.859375 21.914062 C 20.859375 21.789062 20.78125 21.6875 20.6875 21.6875 Z M 23.960938 21.6875 C 23.867188 21.6875 23.789062 21.789062 23.789062 21.914062 C 23.789062 22.039062 23.867188 22.140625 23.960938 22.140625 C 24.054688 22.140625 24.132812 22.039062 24.132812 21.914062 C 24.132812 21.789062 24.054688 21.6875 23.960938 21.6875 Z M 23.960938 21.6875 " fill-opacity="1" fill-rule="nonzero"/></svg>