<svg xmlns="http://www.w3.org/2000/svg" xmlns:xlink="http://www.w3.org/1999/xlink" width="1080" zoomAndPan="magnify" viewBox="0 0 810 809.999993" height="1080" preserveAspectRatio="xMidYMid meet" version="1.0"><path fill="#82ae46" d="M 426.601562 259.199219 L 413.101562 259.199219 L 413.101562 282.148438 L 440.371094 282.148438 Z M 426.601562 259.199219 " fill-opacity="1" fill-rule="nonzero"/><path fill="#82ae46" d="M 415.800781 307.800781 C 422.832031 307.800781 428.769531 312.332031 431.007812 318.601562 L 442.800781 318.601562 L 442.800781 287.550781 L 410.398438 287.550781 C 408.910156 287.550781 407.699219 286.339844 407.699219 284.851562 L 407.699219 259.199219 L 388.800781 259.199219 C 388.800781 259.199219 388.800781 313.199219 388.800781 318.601562 L 400.59375 318.601562 C 402.828125 312.332031 408.769531 307.800781 415.800781 307.800781 Z M 415.800781 307.800781 " fill-opacity="1" fill-rule="nonzero"/><path fill="#82ae46" d="M 329.398438 324 C 329.398438 324.710938 329.332031 325.410156 329.191406 326.105469 C 329.054688 326.800781 328.847656 327.476562 328.578125 328.132812 C 328.304688 328.789062 327.972656 329.410156 327.578125 330 C 327.1875 330.589844 326.738281 331.136719 326.238281 331.636719 C 325.734375 332.136719 325.191406 332.585938 324.601562 332.980469 C 324.011719 333.375 323.386719 333.707031 322.734375 333.976562 C 322.078125 334.25 321.402344 334.453125 320.707031 334.59375 C 320.011719 334.730469 319.308594 334.800781 318.601562 334.800781 C 317.890625 334.800781 317.1875 334.730469 316.492188 334.59375 C 315.796875 334.453125 315.121094 334.25 314.46875 333.976562 C 313.8125 333.707031 313.1875 333.375 312.601562 332.980469 C 312.011719 332.585938 311.464844 332.136719 310.964844 331.636719 C 310.460938 331.136719 310.015625 330.589844 309.621094 330 C 309.226562 329.410156 308.894531 328.789062 308.621094 328.132812 C 308.351562 327.476562 308.144531 326.800781 308.007812 326.105469 C 307.871094 325.410156 307.800781 324.710938 307.800781 324 C 307.800781 323.289062 307.871094 322.589844 308.007812 321.894531 C 308.144531 321.199219 308.351562 320.523438 308.621094 319.867188 C 308.894531 319.210938 309.226562 318.589844 309.621094 318 C 310.015625 317.410156 310.460938 316.863281 310.964844 316.363281 C 311.464844 315.863281 312.011719 315.414062 312.601562 315.019531 C 313.1875 314.625 313.8125 314.292969 314.46875 314.023438 C 315.121094 313.75 315.796875 313.546875 316.492188 313.40625 C 317.1875 313.269531 317.890625 313.199219 318.601562 313.199219 C 319.308594 313.199219 320.011719 313.269531 320.707031 313.40625 C 321.402344 313.546875 322.078125 313.75 322.734375 314.023438 C 323.386719 314.292969 324.011719 314.625 324.601562 315.019531 C 325.191406 315.414062 325.734375 315.863281 326.238281 316.363281 C 326.738281 316.863281 327.1875 317.410156 327.578125 318 C 327.972656 318.589844 328.304688 319.210938 328.578125 319.867188 C 328.847656 320.523438 329.054688 321.199219 329.191406 321.894531 C 329.332031 322.589844 329.398438 323.289062 329.398438 324 Z M 329.398438 324 " fill-opacity="1" fill-rule="nonzero"/><path fill="#82ae46" d="M 243 253.800781 L 270 253.800781 L 270 264.601562 L 243 264.601562 Z M 243 253.800781 " fill-opacity="1" fill-rule="nonzero"/><path fill="#82ae46" d="M 243 275.398438 L 270 275.398438 L 270 286.199219 L 243 286.199219 Z M 243 275.398438 " fill-opacity="1" fill-rule="nonzero"/><path fill="#82ae46" d="M 243 297 L 270 297 L 270 307.800781 L 243 307.800781 Z M 243 297 " fill-opacity="1" fill-rule="nonzero"/><path fill="#82ae46" d="M 523.800781 297 L 453.601562 297 L 453.601562 307.800781 L 523.800781 307.800781 C 541.667969 307.800781 556.199219 322.332031 556.199219 340.199219 C 556.199219 358.070312 541.667969 372.601562 523.800781 372.601562 L 324 372.601562 C 279.335938 372.601562 243 408.9375 243 453.601562 C 243 498.261719 279.335938 534.601562 324 534.601562 L 415.800781 534.601562 L 415.800781 523.800781 L 324 523.800781 C 285.292969 523.800781 253.800781 492.308594 253.800781 453.601562 C 253.800781 414.894531 285.292969 383.398438 324 383.398438 L 523.800781 383.398438 C 547.621094 383.398438 567 364.019531 567 340.199219 C 567 316.378906 547.621094 297 523.800781 297 Z M 523.800781 297 " fill-opacity="1" fill-rule="nonzero"/><path fill="#82ae46" d="M 534.601562 426.601562 L 513 426.601562 L 513 450 L 486 426.601562 L 405 496.800781 L 437.398438 496.800781 L 437.398438 567 L 469.800781 567 L 469.800781 534.601562 C 469.800781 525.652344 477.050781 518.398438 486 518.398438 C 494.949219 518.398438 502.199219 525.652344 502.199219 534.601562 L 502.199219 567 L 534.601562 567 L 534.601562 496.800781 L 567 496.800781 L 534.601562 468.71875 Z M 534.601562 426.601562 " fill-opacity="1" fill-rule="nonzero"/><path fill="#82ae46" d="M 426.601562 324 C 426.601562 324.710938 426.53125 325.410156 426.390625 326.105469 C 426.253906 326.800781 426.050781 327.476562 425.777344 328.132812 C 425.507812 328.789062 425.171875 329.410156 424.78125 330 C 424.386719 330.589844 423.9375 331.136719 423.4375 331.636719 C 422.933594 332.136719 422.390625 332.585938 421.800781 332.980469 C 421.210938 333.375 420.589844 333.707031 419.933594 333.976562 C 419.277344 334.25 418.601562 334.453125 417.90625 334.59375 C 417.210938 334.730469 416.507812 334.800781 415.800781 334.800781 C 415.089844 334.800781 414.386719 334.730469 413.691406 334.59375 C 412.996094 334.453125 412.320312 334.25 411.667969 333.976562 C 411.011719 333.707031 410.390625 333.375 409.800781 332.980469 C 409.210938 332.585938 408.664062 332.136719 408.164062 331.636719 C 407.660156 331.136719 407.214844 330.589844 406.820312 330 C 406.425781 329.410156 406.09375 328.789062 405.820312 328.132812 C 405.550781 327.476562 405.347656 326.800781 405.207031 326.105469 C 405.070312 325.410156 405 324.710938 405 324 C 405 323.289062 405.070312 322.589844 405.207031 321.894531 C 405.347656 321.199219 405.550781 320.523438 405.820312 319.867188 C 406.09375 319.210938 406.425781 318.589844 406.820312 318 C 407.214844 317.410156 407.660156 316.863281 408.164062 316.363281 C 408.664062 315.863281 409.210938 315.414062 409.800781 315.019531 C 410.390625 314.625 411.011719 314.292969 411.667969 314.023438 C 412.320312 313.75 412.996094 313.546875 413.691406 313.40625 C 414.386719 313.269531 415.089844 313.199219 415.800781 313.199219 C 416.507812 313.199219 417.210938 313.269531 417.90625 313.40625 C 418.601562 313.546875 419.277344 313.75 419.933594 314.023438 C 420.589844 314.292969 421.210938 314.625 421.800781 315.019531 C 422.390625 315.414062 422.933594 315.863281 423.4375 316.363281 C 423.9375 316.863281 424.386719 317.410156 424.78125 318 C 425.171875 318.589844 425.507812 319.210938 425.777344 319.867188 C 426.050781 320.523438 426.253906 321.199219 426.390625 321.894531 C 426.53125 322.589844 426.601562 323.289062 426.601562 324 Z M 426.601562 324 " fill-opacity="1" fill-rule="nonzero"/><path fill="#82ae46" d="M 318.601562 307.800781 C 325.628906 307.800781 331.570312 312.332031 333.804688 318.601562 L 383.398438 318.601562 L 383.398438 243 L 286.199219 243 L 286.199219 318.601562 L 303.394531 318.601562 C 305.628906 312.332031 311.570312 307.800781 318.601562 307.800781 Z M 318.601562 307.800781 " fill-opacity="1" fill-rule="nonzero"/></svg>